<svg xmlns="http://www.w3.org/2000/svg" width="512" height="512" viewBox="0 0 512 512"><defs><style>.a,.b{fill:none;}.b{stroke:#a97399;stroke-miterlimit:10;stroke-width:6px;}.c{fill:#a97399;}.d{fill:#705992;}.e{fill:#fff1e4;}</style></defs><title>Caryton</title><rect class="a" width="512" height="512"/><circle class="b" cx="256" cy="256" r="246"/><circle class="b" cx="256" cy="256" r="183"/><circle class="c" cx="256" cy="256" r="176"/><path class="d" d="M87.22,403.48a1.43,1.43,0,0,1,.22,1.1,12.53,12.53,0,0,0,.75,5,11.49,11.49,0,0,0,2.55,4.23c1.22,1.26,2.21,1.51,3,.77a4,4,0,0,0,1-2.24c.18-1,.36-3.24.54-6.65a57.78,57.78,0,0,1,1-9.07,10.85,10.85,0,0,1,2.8-5.4,8,8,0,0,1,7.41-2.06,14.92,14.92,0,0,1,8,4.6,15.3,15.3,0,0,1,3.65,5.93,8.81,8.81,0,0,1,.43,2.38,2,2,0,0,1-.33,1.5.64.64,0,0,1-.49.15.74.74,0,0,1-.49-.2,2.05,2.05,0,0,1-.28-1.29,9.59,9.59,0,0,0-.86-3.61,10.59,10.59,0,0,0-2.1-3.25,3.18,3.18,0,0,0-1.62-1,1.42,1.42,0,0,0-1.38.36,4.3,4.3,0,0,0-1,2.19,29.79,29.79,0,0,0-.47,4.57q-.45,9.63-1.17,12.39a9.78,9.78,0,0,1-2.5,4.58,7.37,7.37,0,0,1-3.54,1.9,8.85,8.85,0,0,1-4.27-.12,17.42,17.42,0,0,1-7.92-5,15,15,0,0,1-4.2-8c-.36-2.09-.3-3.36.19-3.83a.72.72,0,0,1,.54-.2A.73.73,0,0,1,87.22,403.48Z"/><path class="d" d="M134.84,413.28l-1,1.21-7.94,9.39-10.58,13-10.58-8.76,11.79-14,7-8.73.72-.83Z"/><path class="d" d="M153,443.29l2-3.16,3.15-5.05,1.44-2.31.89-1.45c.44-.68.88-.88,1.35-.58a.78.78,0,0,1,.43.6,2.07,2.07,0,0,1-.41,1l-.17.26c-.18.26-.46.69-.85,1.3l-4.13,6.33-3.77,5.82L149,452.25l-3.86,6.21q-2.34-4.92-7.13-14t-7.88-14.51l-.57.94-6,9.9-.81,1.32a.82.82,0,0,1-1.27.34c-.52-.33-.57-.83-.14-1.5l.86-1.31,1.38-2.13,6.24-9.67L138,414.64Q142.67,424.29,153,443.29Z"/><path class="d" d="M177.15,438.79l-6.4,14.57-5.21,12.46a14.7,14.7,0,0,0,1.71.9,14.86,14.86,0,0,0,9,.71,15,15,0,0,0,3.09-1.21,17.16,17.16,0,0,0,2.93-1.84c.47-.39.86-.51,1.16-.38s.6.48.43.87a5.22,5.22,0,0,1-1.92,1.65,19.67,19.67,0,0,1-3.37,1.69,15.7,15.7,0,0,1-7.72.86,16.76,16.76,0,0,1-4.38-1.18,15.74,15.74,0,0,1-5.26-3.72,15.52,15.52,0,0,1-4.43-9.25,16.18,16.18,0,0,1,22.5-16.86,15.84,15.84,0,0,1,8.54,8.43c.83,1.87,1.12,3.09.88,3.65a.65.65,0,0,1-.39.33.74.74,0,0,1-.53,0c-.28-.12-.49-.53-.64-1.23a13.56,13.56,0,0,0-3-5.9,14.8,14.8,0,0,0-5.52-4.06A7.25,7.25,0,0,0,177.15,438.79Z"/><path class="d" d="M204.5,457.84c-.2.66-.42,1.47-.67,2.42l-.34,1.3-3.73,15,7.38,1.83,5.23,1.3c.85.22,1.21.59,1.08,1.1a.68.68,0,0,1-.84.56c-.11,0-.71-.15-1.82-.42l-24.67-6.4.32-1.12,1.9-7.25,2.1-7.75,3.32-13.54,23,6a12.47,12.47,0,0,1,1.74.52.69.69,0,0,1,.31.86c-.13.5-.51.67-1.15.5l-.15,0-10.85-2.95-1.83,6.71,2.36.64,7.64,1.84,1.67.41a3.08,3.08,0,0,1,1.17.47.64.64,0,0,1,.13.69q-.22.86-1.65.48l-1.71-.49Z"/><path class="d" d="M291.62,449.35,315,478.13l-15.32,2.75-2.86-3.65-7.39,1.32-6.52,1.15-1.11.18-1,3a9.07,9.07,0,0,1-.62,1.67.82.82,0,0,1-.58.41c-.5.09-.79-.09-.87-.53a2.77,2.77,0,0,1,.24-1.15c.19-.57.88-2.47,2.09-5.7l9.32-24.9Zm-4.26,15.74-2.7,7.19-2.12,5.9,6.6-1.1,6.59-1.27Z"/><path class="d" d="M335.83,438.31l-.14,1.08q-2.19,17.7-3.15,31l4.83-1.7,5-1.86,1.36-.54c.84-.29,1.34-.18,1.52.34s.11.62-.06.76a13.74,13.74,0,0,1-2,.84l-24.64,8.66.11-1q2.73-21.83,3.26-31.17l-9.51,3.59-.95.36c-.79.27-1.27.15-1.46-.37a.73.73,0,0,1,.26-.9,7.49,7.49,0,0,1,1.43-.6Z"/><path class="d" d="M362.11,458.16l-7.3-14.09-6.27-11.71-.91.43a10.77,10.77,0,0,0-3.22,2.69,12.76,12.76,0,0,0-2.23,3.8,10.05,10.05,0,0,0,.55,8.43,7,7,0,0,0,5.49,4.11,6.34,6.34,0,0,0,3.83-.62,5.85,5.85,0,0,0,2.21-2,3.29,3.29,0,0,1,.7-.85c.35-.18.62-.08.82.3s0,1.06-.62,1.88a7.94,7.94,0,0,1-8.3,2.59,8.89,8.89,0,0,1-5.51-4.74,11.38,11.38,0,0,1-.29-10.24,14.16,14.16,0,0,1,15.11-8.32q7.05,1.15,11,8.66a16.71,16.71,0,0,1,1.77,11.77,15.42,15.42,0,0,1-3.19,6.47,14.9,14.9,0,0,1-4.62,3.82,10.94,10.94,0,0,1-6.91,1.28q-2.54-.42-3.12-1.53a.94.94,0,0,1,0-.74,1,1,0,0,1,.49-.59c.37-.19.85-.09,1.43.31a6,6,0,0,0,3.39,1.14,9,9,0,0,0,4.16-1.18A9.39,9.39,0,0,0,362.11,458.16Z"/><path class="d" d="M375.94,413.65l7.23,10.58,10.25,14.26.43.61-10.59,7.45-.42-.61-10.12-14.69L369,425.83l-.54-.77-.29.37-2.08,2.7a2.5,2.5,0,0,1-.6.64c-.36.25-.69.18-1-.24a.81.81,0,0,1-.15-.82,10.44,10.44,0,0,1,1.3-1.69l3.76-4.43,1.41-1.67Z"/><path class="d" d="M410.5,424,399.82,412.3l-9.06-9.71c-.38.3-.63.52-.78.65a10.77,10.77,0,0,0-2.41,3.43,12.44,12.44,0,0,0-1.18,4.24,10.1,10.1,0,0,0,2.69,8,7,7,0,0,0,6.37,2.56A6.42,6.42,0,0,0,399,419.9a6,6,0,0,0,1.62-2.53,3,3,0,0,1,.45-1c.29-.27.58-.24.88.08s.29,1-.13,2a7.89,7.89,0,0,1-7.35,4.64,8.9,8.9,0,0,1-6.54-3.16,11.38,11.38,0,0,1-2.92-9.82,14.18,14.18,0,0,1,12.46-11.93q7.13-.69,12.86,5.55a16.64,16.64,0,0,1,4.74,10.91,15.36,15.36,0,0,1-1.42,7.08,14.68,14.68,0,0,1-3.48,4.88,11,11,0,0,1-6.35,3c-1.7.16-2.84-.06-3.4-.68a.91.91,0,0,1-.24-.7,1,1,0,0,1,.33-.7c.3-.28.79-.3,1.46-.06a6,6,0,0,0,3.57.22,9,9,0,0,0,3.72-2.2A10.74,10.74,0,0,0,410.5,424Z"/><path class="e" d="M237.47,311.58l-12.66-12.65,12.66-12.65,12.69,12.65Zm5.9-31.21L256,267.72l12.69,12.65L256,293.07Zm25.3,37.11L256,330.13l-12.65-12.65L256,304.83Zm5.91-31.2,12.65,12.65-12.65,12.65-12.66-12.65Z"/><path class="e" d="M239.42,145.82V112.58h33.32v33.24h33.32v33.32H272.74v58.37H239.42V179.14H206.1V145.82Zm8.36,8.35H214.46v16.62h33.32v58.37h16.61V170.79h33.32V154.17H264.39V120.93H247.78Z"/><path class="e" d="M338.62,375.73l-67.57-2.21a70.63,70.63,0,0,1-7.24,1.32,54.29,54.29,0,0,1-6.85.45,63.35,63.35,0,0,1-7.27-.45q-3.88-.45-8.28-1.32l-67.95,2.21V329.28l14.32-.37,5.6-4.71q9.06-1,17.18-1.56t15.19-.51A104.13,104.13,0,0,1,245,323.51q7,1.39,11,4.66c2.41-2.13,6.06-3.68,10.93-4.62A110.53,110.53,0,0,1,287,322.13q6.54,0,14.36.51t17,1.56l5.23,4.34,15.08.37ZM334.85,374V330.38l-9.54-.23,3.77,2.7v38.36l-61.65-1.67A33.28,33.28,0,0,1,256,371.18a32.36,32.36,0,0,1-11.24-1.64l-61.88,1.67V332.85l2.79-2.37-8.48.2V374l65.42-2.11A72.41,72.41,0,0,0,250,373.2a54.57,54.57,0,0,0,6.86.45,45.82,45.82,0,0,0,6.31-.45,59.18,59.18,0,0,0,6.69-1.35ZM186.69,333.19V368l7.62-6.38V327.17Zm3,36.35,56.23-1.93c1.64.91,4.38,1.56,8.23,1.93q-1.06-4.2-7.5-6t-20.2-1.82q-6.37,0-13.73.39T197,363.23Zm8.43-8.12q8.92-.69,15.83-1t11.74-.34q19.8,0,28.5,4.15V333.09q0-4.68-6.7-7t-20.18-2.33q-6.93,0-14.21.42t-15,1.26Zm115.84-36.05q-8.46-.81-15.61-1.2t-13-.41q-14.24,0-21.54,2.54-5.85,2-5.85,6.85v31.18A42.79,42.79,0,0,1,269.23,361a115.67,115.67,0,0,1,16.54-.92q7,0,14,.36t14.11,1.08ZM323,369.54l-7.38-6.21q-8.92-.84-16.58-1.24t-14-.4q-27.16,0-27.16,7.85a22.31,22.31,0,0,0,8.66-2Zm-5.31-42.23v34.35l7.62,6.21V333.55Z"/><path class="d" d="M38.47,202.74,54.88,207l14,3.39a16,16,0,0,0,.66-1.95,14.7,14.7,0,0,0,.37-4.87,15.3,15.3,0,0,0-1.14-4.77,16.07,16.07,0,0,0-1.8-3.05A17.36,17.36,0,0,0,64.54,193c-.48-.44-.68-.82-.6-1.16.13-.51.41-.71.85-.6A5.46,5.46,0,0,1,66.85,193a20.73,20.73,0,0,1,2.35,3.27,16.71,16.71,0,0,1,2.2,8,17.64,17.64,0,0,1-.5,4.81,17.1,17.1,0,0,1-3,6.17,16.64,16.64,0,0,1-9,6.22,17.25,17.25,0,0,1-21.53-20.86,16.93,16.93,0,0,1,7.44-10.41c1.83-1.19,3.07-1.7,3.7-1.54a.66.66,0,0,1,.41.35.8.8,0,0,1,.08.56c-.08.31-.48.61-1.19.89a14.28,14.28,0,0,0-5.7,4.15,15.88,15.88,0,0,0-3.36,6.49A8.41,8.41,0,0,0,38.47,202.74Z"/><path class="d" d="M49.49,163.31l39.42-3.18-6.83,15.12-4.94.31-3.3,7.3-2.93,6.42-.51,1.07,2,2.64a12,12,0,0,1,1.09,1.56.88.88,0,0,1,0,.76q-.34.75-1,.45a3.31,3.31,0,0,1-.87-.9q-.59-.78-3.74-5.28L51.66,166.34Zm11.26,13.25,4.68,6.71,3.91,5.43,3-6.46,2.86-6.57Z"/><path class="d" d="M96.66,140.29a27.39,27.39,0,0,0,5.06-2.51,30.52,30.52,0,0,0,4.72-3.67c.36-.34.7-.41,1-.19s.43.76,0,1.36c-1,1.36-2.92,2.86-5.86,4.48A50,50,0,0,1,92,143.55l.8.56,3.34,2.33L98,147.78l-8.4,11.9-.88-.62-6.34-4.54-7.58-5.44L63,140.79l5.54-7.85q3.74-5.28,5.92-7.77a20.14,20.14,0,0,1,4.34-3.81,12.5,12.5,0,0,1,7.68-1.89,13.37,13.37,0,0,1,6.92,2.39A13.22,13.22,0,0,1,98.08,128Q100.54,134.19,96.66,140.29Zm-2.52,1,.68-.92A12.81,12.81,0,0,0,97.37,132a11.2,11.2,0,0,0-1.62-5.17,11.55,11.55,0,0,0-11-5.76,11.1,11.1,0,0,0-6,2.17,29.81,29.81,0,0,0-6,6.55l13,9.42,3.54,2.5.93.63A29.79,29.79,0,0,0,94.14,141.28Z"/><path class="d" d="M110.88,101.89l-2.66-13.21a10.79,10.79,0,0,1-.33-1.81,1,1,0,0,1,.31-.73,1,1,0,0,1,.63-.34.64.64,0,0,1,.57.17,1.34,1.34,0,0,1,.33.72,7.38,7.38,0,0,1,.15.81l.2,1.27,6,33,.22,1.31a17,17,0,0,1,.3,2.12,1,1,0,0,1-.33.73c-.36.36-.7.39-1,.08a2.6,2.6,0,0,1-.35-1.32l-1.5-9.08-1.12-.16q-12.09-1.62-16.94-2.16t-12-1l12.1-12.42Z"/><path class="d" d="M134.43,69.85l4.19,6.21,4,5.87,9.48,13.45-12,8.36L129.34,88l-3.77-5.27-3.21-4.47-2.55,1.86-3.65,2.67-.53.4c-.63.44-1.11.43-1.44,0a.75.75,0,0,1,.06-1.09,6.77,6.77,0,0,1,.92-.73l24.07-16.81a7.61,7.61,0,0,1,1.57-.93.81.81,0,0,1,.86.4c.31.44.13.9-.54,1.36l-1.75,1.13-4.56,3.08Z"/><path class="d" d="M158.39,53.58a17.59,17.59,0,0,1,7.28-1.7A16.72,16.72,0,0,1,175.94,55a17.51,17.51,0,0,1,5.68,6.8,17.17,17.17,0,0,1-1.87,17.69,17.19,17.19,0,0,1-6.39,5.27,17.6,17.6,0,0,1-19-2.63,17.18,17.18,0,0,1-5.83-14,16.91,16.91,0,0,1,3.9-10A17.5,17.5,0,0,1,158.39,53.58Zm-1,2.27L164,70l5.7,11.62L171,84.2a9,9,0,0,0,1.46-.55,16,16,0,0,0,7.26-6.72,15.31,15.31,0,0,0,2-8.59,16.11,16.11,0,0,0-1.56-6A15.65,15.65,0,0,0,175,56.2a15.18,15.18,0,0,0-9.06-2.85A16.41,16.41,0,0,0,158.85,55,9.8,9.8,0,0,0,157.38,55.85Z"/><path class="d" d="M215,51.91,214,48l-1.7-6.11-.77-2.79-.5-1.75c-.23-.84,0-1.33.52-1.48a.81.81,0,0,1,.78.1,2.11,2.11,0,0,1,.49,1l.09.32c.07.33.21.86.41,1.6l2,7.81,1.86,7.16,2.08,7.49,2.11,7.51q-5.55-1.69-16.15-4.48T188.09,60.2l.33,1.13,3.45,11.86.45,1.59a.87.87,0,0,1-.66,1.24c-.63.17-1-.15-1.27-1L190,73.43l-.68-2.61-3.1-11.88L181.7,43Q192.62,46.3,215,51.91Z"/><path class="d" d="M277.6,33.48,276.26,45.8l-1.34,13-.59,6.6q1.2.21,2.1.3,8.35.85,11.58-2.75a12.27,12.27,0,0,0,2.49-5.48,126.6,126.6,0,0,0,1.81-13.33l.57-6.31.12-2c.08-.83.46-1.2,1.13-1.14s.86.49.78,1.28c-.05.46-.14,1.09-.27,1.88l-1.14,9.48c-.47,4-.81,6.7-1,8.13a29.37,29.37,0,0,1-.88,4,10.54,10.54,0,0,1-4,5.84q-3.71,2.64-12,1.81-7.23-.74-10.73-3.06a8.51,8.51,0,0,1-3.61-5.48,13.28,13.28,0,0,1-.3-3.45c.05-1.16.37-4.7.95-10.6L263.06,32Z"/><path class="d" d="M327.83,60.52l1.11-3.84,1.72-6.11.79-2.79.48-1.75c.24-.83.64-1.16,1.21-1a.85.85,0,0,1,.62.49,2.24,2.24,0,0,1-.13,1.15l-.09.32c-.11.32-.27.85-.48,1.58l-2.33,7.72-2.13,7.08-2.1,7.49-2.09,7.51Q320.52,74,312.92,66.16t-12.4-12.49l-.3,1.13L297,66.73l-.44,1.59c-.19.66-.59.9-1.2.73s-.83-.68-.59-1.49l.48-1.61.78-2.59,3.5-11.76L304,35.67Q311.61,44.13,327.83,60.52Z"/><path class="d" d="M355,55.21l-.68,1.53-5.51,11.9L341.6,85l-13.36-6,8.15-17.77,4.75-11,.5-1.06Z"/><path class="d" d="M373.64,88.23l7.92-4.43q5.85-3.22,9.55-5.51a7.22,7.22,0,0,1,1.43-.74.93.93,0,0,1,.8.1,1.06,1.06,0,0,1,.46.62.85.85,0,0,1-.09.73,3.08,3.08,0,0,1-1.12.81l-.42.22-1.11.57L359,97.92l1.76-40.64,14.12,9Z"/><path class="d" d="M402.32,100.59c-.53.52-1.15,1.16-1.86,1.94l-1,1L388.39,115.8l6,5.46,4.25,3.85c.69.64.85,1.17.46,1.59a.73.73,0,0,1-1.07.1c-.09-.07-.59-.51-1.49-1.32L376.61,107l.86-.9,5.45-5.84,5.89-6.22,10-11,18.6,17.24a11.72,11.72,0,0,1,1.37,1.37.72.72,0,0,1-.14,1c-.37.4-.81.37-1.33-.11l-.12-.12-8.7-8.25-5.11,5.38,1.9,1.79,6.24,5.58,1.36,1.24a3.15,3.15,0,0,1,.86,1,.66.66,0,0,1-.22.71c-.43.47-1,.34-1.8-.38l-1.35-1.32Z"/><path class="d" d="M415.92,141.08a27.88,27.88,0,0,0,.87,5.58,30.49,30.49,0,0,0,2.07,5.6q.33.68-.12,1-.63.48-1.29-.39c-1-1.33-1.85-3.65-2.52-6.95a49.75,49.75,0,0,1-.7-10.33l-.78.6-3.22,2.48-1.85,1.4-8.82-11.6.86-.65,6.24-4.68,7.47-5.59,11.47-8.79,5.82,7.66a94.77,94.77,0,0,1,5.62,8,19.87,19.87,0,0,1,2.33,5.28,12.48,12.48,0,0,1-.51,7.9,13.18,13.18,0,0,1-11.63,8.55C422.79,146.45,419,144.77,415.92,141.08Zm-.19-2.71.68.93a12.77,12.77,0,0,0,7.22,5,11.29,11.29,0,0,0,5.42,0,11.59,11.59,0,0,0,4.5-2.06,11.46,11.46,0,0,0,4.31-6.7,11.22,11.22,0,0,0-.27-6.34,30.59,30.59,0,0,0-4.44-7.7L420.25,131l-3.44,2.62-.88.7A30.52,30.52,0,0,0,415.73,138.37Z"/><path class="d" d="M425.63,154.79a1.57,1.57,0,0,1-.11,1.19,13.55,13.55,0,0,0-.75,5.35,12.49,12.49,0,0,0,1.33,5.1q1.31,2.48,2.81,1.69a4.4,4.4,0,0,0,1.7-2q.74-1.5,2.56-6.64a61.92,61.92,0,0,1,3.74-9,11.56,11.56,0,0,1,4.49-4.68,8.51,8.51,0,0,1,8.2.13,16,16,0,0,1,6.85,7.14,16.32,16.32,0,0,1,1.94,7.17,9.49,9.49,0,0,1-.27,2.56c-.21.78-.47,1.26-.8,1.43a.66.66,0,0,1-.55,0,.72.72,0,0,1-.44-.35,2.28,2.28,0,0,1,.1-1.4,10.12,10.12,0,0,0,.22-3.95,11.34,11.34,0,0,0-1.17-4,3.33,3.33,0,0,0-1.36-1.49,1.55,1.55,0,0,0-1.53-.05,4.58,4.58,0,0,0-1.68,1.93,30.06,30.06,0,0,0-1.87,4.54q-3.36,9.72-4.94,12.32a10.29,10.29,0,0,1-3.94,3.93,7.87,7.87,0,0,1-4.19.87,9.26,9.26,0,0,1-4.32-1.4,18.65,18.65,0,0,1-6.6-7.49,16,16,0,0,1-1.88-9.46q.39-3.37,1.35-3.87a.75.75,0,0,1,.61,0A.81.81,0,0,1,425.63,154.79Z"/><path class="d" d="M469.19,185.18l-1.57.59-12.33,4.46-16.69,6.41-5.14-13.71,18.36-6.73,11.12-4.34,1.11-.39Z"/><path class="d" d="M475.4,215l-7.33,1.54L461.12,218l-16,3.71-3.24-14.23,18.63-4.08,6.31-1.51,5.35-1.29-.77-3.06-1.1-4.39-.17-.65c-.17-.74,0-1.18.59-1.31a.75.75,0,0,1,1,.47,7.89,7.89,0,0,1,.33,1.12l6.5,28.63a7.93,7.93,0,0,1,.26,1.81.77.77,0,0,1-.69.64c-.53.12-.88-.21-1.06-1l-.39-2-1.13-5.39Z"/><path class="d" d="M468.6,255.91l11.46,7.1a9.59,9.59,0,0,1,1.55,1,1,1,0,0,1,.32.73,1.12,1.12,0,0,1-.18.69.66.66,0,0,1-.52.3,1.38,1.38,0,0,1-.75-.26,6.47,6.47,0,0,1-.69-.44l-1.07-.72-28.2-18.19-1.11-.74a18.63,18.63,0,0,1-1.75-1.23,1,1,0,0,1-.3-.74c0-.51.19-.78.63-.8a2.51,2.51,0,0,1,1.2.65l7.66,5.11.88-.71q9.45-7.71,13.16-10.89t8.95-8l.79,17.32Z"/></svg>